# xmcd CD database file
#
# Track frame offsets:
#	150
#	36327
#	50060
#	68060
#	89972
#	119985
#	163682
#	182580
#	194387
#	222200
#	240050
#
# Disc length: 3356 seconds
#
# Revision: 0
# Processed by: cddbd v1.5.1PL0 Copyright (c) Steve Scherf et al.
# Submitted via: CDex 1.51
#
DISCID=a40d1a0b
DTITLE=Ronnie Scott - Live at the Jazz Club
DYEAR=1900
DGENRE=Jazz
TTITLE0=Popo
TTITLE1=Pantagrulian
TTITLE2=Mullenium
TTITLE3=The Nearness of You
TTITLE4=Nemo
TTITLE5=All The Things You Are
TTITLE6=The Champ
TTITLE7=Day Dream
TTITLE8=On the Alamo
TTITLE9=Waht's New
TTITLE10=I May Be Wrong
EXTD=
EXTT0=
EXTT1=
EXTT2=
EXTT3=
EXTT4=
EXTT5=
EXTT6=
EXTT7=
EXTT8=
EXTT9=
EXTT10=
PLAYORDER=
